<svg xmlns="http://www.w3.org/2000/svg" viewBox="0 0 48 48">
  <defs>
    <linearGradient id="g" x1="24" y1="6" x2="24" y2="44" gradientUnits="userSpaceOnUse">
      <stop offset="0" stop-color="#ffc027"/>
      <stop offset="1" stop-color="#ed7d09"/>
    </linearGradient>
    <clipPath id="ku2"><path d="M10.6 15.8 A12 3.8 0 0 1 34.6 15.8 L34.6 20.4 A12 3.8 0 0 1 10.6 20.4 Z"/></clipPath>
    <clipPath id="kb1"><path d="M7.5 21.6 A16.2 5 0 0 1 39.9 21.6 L39.9 27.8 A16.2 5 0 0 1 7.5 27.8 Z"/></clipPath>
    <clipPath id="kb2"><path d="M8.3 27.8 A16.2 5 0 0 1 40.7 27.8 L40.7 34 A16.2 5 0 0 1 8.3 34 Z"/></clipPath>
  </defs>
  <rect width="48" height="48" rx="11" fill="#1a1409"/>
  <g transform="translate(24 24) scale(1.02) translate(-24.6 -21.5)">
    <path fill="url(#g)" d="M8.3 27.8 A16.2 5 0 0 1 40.7 27.8 L40.7 34 A16.2 5 0 0 1 8.3 34 Z"/>
    <path fill="url(#g)" d="M7.5 21.6 A16.2 5 0 0 1 39.9 21.6 L39.9 27.8 A16.2 5 0 0 1 7.5 27.8 Z"/>
    <path fill="none" stroke="#fff" stroke-width="1.1" clip-path="url(#kb2)" d="M7.5 27.8 A16.2 5 0 0 0 39.9 27.8"/>
    <path fill="url(#g)" d="M10.6 15.8 A12 3.8 0 0 1 34.6 15.8 L34.6 20.4 A12 3.8 0 0 1 10.6 20.4 Z"/>
    <path fill="none" stroke="#fff" stroke-width="1.1" clip-path="url(#kb1)" d="M10.6 20.4 A12 3.8 0 0 0 34.6 20.4"/>
    <path fill="url(#g)" d="M10 11.2 A12 3.8 0 0 1 34 11.2 L34 15.8 A12 3.8 0 0 1 10 15.8 Z"/>
    <path fill="none" stroke="#fff" stroke-width="1.1" clip-path="url(#ku2)" d="M10 15.8 A12 3.8 0 0 0 34 15.8"/>
    <path fill="none" stroke="#fff" stroke-width="2.2" stroke-linecap="round" d="M28.5 22.5 C 26.5 27.5, 22 31.5, 16.5 33.2 C 12.3 34.5, 9.2 33.3, 8.5 30.9"/>
    <g transform="translate(24 20) rotate(-45) scale(0.62) translate(-23.3 -21.1)">
      <path fill="#fff" fill-rule="evenodd"
            d="M8.5 23.2 L16.5 23.2 L16.5 19.6 Q16.5 18.8 17.3 18.8 L27.4 18.2 L35.3 12.7 Q36.8 11.6 37.9 13.1 L39.3 15.0 Q40.3 16.4 38.9 17.4 L30.0 23.6 Q29.2 24.2 29.2 25.2 L29.2 29.4 Q29.2 30.6 28.0 30.6 L17.7 30.6 Q16.5 30.6 16.5 29.4 L16.5 27.6 L8.5 27.6 Q6.3 27.6 6.3 25.4 Q6.3 23.2 8.5 23.2 Z M29.8 19.9 L33.8 17.6 L30.2 23.2 Z"/>
    </g>
    <path fill="none" stroke="#fff" stroke-width="2.2" stroke-linecap="round" d="M28.2 10.5 C 29.5 8.8, 31.5 7.9, 33.8 8.1 C 37 8.4, 40.2 8.3, 43.2 7.7"/>
  </g>
</svg>
