<svg xmlns="http://www.w3.org/2000/svg" viewBox="0 0 48 48">
  <rect width="48" height="48" rx="11" fill="#1a1409"/>
  <rect x="12.6" y="4.4" width="12.8" height="5.4" rx="2.7" fill="#d97f06"/>
  <rect x="7" y="39" width="24" height="4" rx="2" fill="#d97f06"/>
  <rect x="10" y="7" width="18" height="32" rx="3.6" fill="#f5a623"/>
  <rect x="13.4" y="11.4" width="11.2" height="8.2" rx="2" fill="#181206"/>
  <rect x="15.4" y="13.6" width="7" height="1.6" rx="0.8" fill="#ffd88f"/>
  <rect x="15.4" y="16.4" width="4.2" height="1.6" rx="0.8" fill="#ffd88f" opacity=".55"/>
  <path d="M28 14.5h3a7.6 7.6 0 0 1 7.6 7.6v1" stroke="#d97f06" stroke-width="2.8" fill="none" stroke-linecap="round"/>
  <g transform="rotate(14 38.6 22.5)">
    <rect x="35.4" y="21.6" width="6.6" height="8.8" rx="2" fill="#d97f06"/>
    <path d="M37.3 30.4h2.8l-.5 4a.9.9 0 0 1-1.8 0z" fill="#d97f06"/>
  </g>
</svg>
