<svg xmlns="http://www.w3.org/2000/svg" viewBox="0 0 48 48">
  <defs>
    <clipPath id="c2"><path d="M5.8 27.5 A16.5 9.5 0 0 1 38.8 27.5 L38.8 32 A16.5 9.5 0 0 1 5.8 32 Z"/></clipPath>
    <clipPath id="c3"><path d="M8.5 32 A16.5 9.5 0 0 1 41.5 32 L41.5 36.5 A16.5 9.5 0 0 1 8.5 36.5 Z"/></clipPath>
    <mask id="m">
      <path fill="#fff" d="M8.5 32 A16.5 9.5 0 0 1 41.5 32 L41.5 36.5 A16.5 9.5 0 0 1 8.5 36.5 Z"/>
      <path fill="#fff" d="M5.8 27.5 A16.5 9.5 0 0 1 38.8 27.5 L38.8 32 A16.5 9.5 0 0 1 5.8 32 Z"/>
      <path fill="#fff" d="M7.5 18 A16.5 9.5 0 0 1 40.5 18 L40.5 23 A16.5 9.5 0 0 1 7.5 23 Z"/>
      <path fill="none" stroke="#000" stroke-width="1.5" clip-path="url(#c2)" d="M7.5 23 A16.5 9.5 0 0 0 40.5 23"/>
      <path fill="none" stroke="#000" stroke-width="1.5" clip-path="url(#c3)" d="M5.8 32 A16.5 9.5 0 0 0 38.8 32"/>
      <g transform="translate(24 17.8) scale(0.78) scale(1 0.7) rotate(-22) translate(-23.3 -21.1)">
        <path fill="#000" d="M8.5 23.2 L16.5 23.2 L16.5 19.6 Q16.5 18.8 17.3 18.8 L27.4 18.2 L35.3 12.7 Q36.8 11.6 37.9 13.1 L39.3 15.0 Q40.3 16.4 38.9 17.4 L30.0 23.6 Q29.2 24.2 29.2 25.2 L29.2 29.4 Q29.2 30.6 28.0 30.6 L17.7 30.6 Q16.5 30.6 16.5 29.4 L16.5 27.6 L8.5 27.6 Q6.3 27.6 6.3 25.4 Q6.3 23.2 8.5 23.2 Z"/>
        <circle cx="31" cy="23" r="2.8" fill="#fff"/>
      </g>
    </mask>
  </defs>
  <rect width="48" height="48" rx="11" fill="#1a1409"/>
  <g transform="translate(24 25) scale(1.12) translate(-23.65 -27.25)">
    <rect width="48" height="48" fill="#f5a623" mask="url(#m)"/>
  </g>
</svg>
