<svg xmlns="http://www.w3.org/2000/svg" viewBox="0 0 1536 1456" aria-label="Fuel nozzle over stacked coins"><defs><linearGradient id="nozzle-white" x1="300" y1="250" x2="1150" y2="1150" gradientUnits="userSpaceOnUse"><stop offset="0" stop-color="#ffffff"/><stop offset="1" stop-color="#dde2e8"/></linearGradient></defs><path fill="#fea103" fill-rule="evenodd" d="M804 69.5q-37-2.5-80.5-2t-81 4-79 10.5-83 18.5-65.5 21-42.5 19T342 158t-24.5 19.5-18 18.5-9.5 15-6 16.5-1.5 17.5 2.5 15.5 10.5 20 25.5 29 47 32.5 60 28.5 66 21 72 15.5 79.5 9.5 54 3l10.5-.5 26.5-18q26.5-18 57.5-31t45.5-13 31 5.5L887 368l35.5-26.5q35.5-26.5 50.5-36t22-11 17.5 0 23.5 11l13 9.5 34-19q34-19 60-31.5l26-12.5 1.5-3.5 1.5-3.5-2-14q-2-14-11-28.5t-26.5-30-47-31.5-64-28.5T959 93t-73-14-82-9.5m509.5 895-2.5-.5-14.5 15.5q-14.5 15.5-41 34.5t-51 32-55.5 25.5-74.5 25-96 22T898 1131t-54 4-102.5 0-128-7-82.5-12l-31-6-32 46.5q-32 46.5-61 77.5l-29 31v3l19 11.5q19 11.5 34 18.5t56.5 22 82.5 25 87 16.5 65 7 26 2 42.5 2 83-2.5 90.5-10 84-17.5 71.5-21.5 65.5-28.5 58-34 35-28.5 19-21.5 13.5-21.5 9.5-23 3-93.5-3.5-94L1316 965zm8-250.5h-1.5l-4.5 6.5q-4.5 6.5-19 21T1266 768t-52.5 30.5-62.5 28-58.5 18.5-67 16-65.5 10.5l-31 3.5-18.5 24.5q-18.5 24.5-33 39T849 963t-21.5 13-16 4.5-35 .5-54-7.5-60.5-18-36.5-11.5H622l-12.5 23.5q-12.5 23.5-16 27t-10 6.5l-6.5 3-6.5-1.5-6.5-1.5-3 1-3 1-22.5 42.5L513 1088l30 6q30 6 91.5 12t111.5 6.5 91-2 91.5-9.5 80.5-13.5 67.5-18 66.5-23.5 53.5-25 44-26.5 34-27 26.5-30 17-32.5 5-103.5V714zm-1053-197-5.5-13-23.5 12q-23.5 12-39 23.5t-25 21T155 587t-14.5 29.5-3.5 23 3.5 23T153 689t23 27.5 42.5 32 63 33.5 64 24.5T414 825t52.5 9.5l13.5.5 45-80 45-80-2.5-2q-2.5-2-28.5-6t-59-13-72-25-65.5-33-36-26-21-24.5-17-28.5m27-202.5L283 302l-1 1-1 1 .5 90q.5 90 5.5 106t15.5 31 23 26 25.5 19.5 46.5 24 77 28 74 18T582 651l3-1 19-31.5 19-31.5-5-9q-5-9-7-17.5t0-20.5 12-28.5 33.5-42L680 444v-3l-15.5-.5Q649 440 601 434t-98.5-18.5T415 388t-56-25.5-35-23-28.5-25m904 192.5-8.5-3-4 13q-4 13-14.5 29.5T1154 571t-22.5 19-40.5 24l-26 13-11.5 20q-11.5 20-39.5 53.5T978.5 760t-21 57.5L944 849l12-.5q12-.5 39-5t31.5-6.5 26-6 48-12 57.5-20.5 49.5-22 34.5-20 36.5-30T1305 698t11.5-23 5-35-6-34-10-19.5-17.5-20-23.5-21.5-33.5-21.5-31.5-16.5M150 721l-11-12-1 4.5q-1 4.5-1 87.5t3 94 11 25.5 16.5 24.5 12.5 12 11.5 9.5 33 24 61.5 33 69 27l33 10.5 4.5-5.5q4.5-5.5 31.5-53t27-52V946l-6-6.5-6-6.5-1-9.5-1-9.5 13.5-28 13.5-28-50.5-11.5Q363 835 335 826t-49-17.5-39.5-18T209 769t-33.5-24-25.5-24m1021-358-1-1-42.5 27.5L1085 417l1.5 12q1.5 12 .5 24.5t-6 22-15 20.5l-10 11v5q0 5 5 27t5.5 41l.5 19 1 1 1 1 11-5q11-5 31-19t29.5-24 16-20.5 11-28.5 4.5-79v-61zm-855.5 697-29.5-12-1.5 1.5-1.5 1.5v49q0 49 4.5 64.5t6.5 18.5l2 3h3l20-23q20-23 36.5-47.5t18-29.5l1.5-5-15-4.5q-15-4.5-44.5-16.5"/><path fill="url(#nozzle-white)" fill-rule="evenodd" d="M1275.5 255.5q-33.5-.5-49.5 2t-33 8.5-21 6-67 34.5l-63 34.5-3-2q-3-2-5.5-7t-7.5-9.5-11.5-7-13-1.5-59 39L890 391l-20-6.5q-20-6.5-28-7t-13.5.5-15 4.5-29 13.5-40.5 24-35 25.5-28.5 26T651 506t-18 27-3 15 8 24l8 16-20 32q-20 32-94 163.5L458 915l.5 5.5.5 5.5 3.5 3.5q3.5 3.5 8.5 6l5 2.5 2 3.5 2 3.5-46.5 80q-46.5 80-66 108t-43 54-41.5 40.5-26.5 19.5-21 10-21 6.5-17 .5-17.5-5-15.5-11.5-9-12.5-4.5-14.5-1.5-24.5 8.5-43.5 20.5-55 28-53L222 1018l-1.5-3q-1.5-3-21-16L180 986l-2 1.5q-2 1.5-13 20.5t-27.5 54-23.5 55-11.5 39-5.5 28.5 0 30 5.5 34.5 12 26 15 19.5 19 14.5 25 10.5 27.5 4 25-1 27.5-6.5 35-14 30-16.5 32.5-25 47.5-47 51.5-66 61.5-102.5l36.5-66 3-1 3-1 7 3q7 3 12 2.5l5-.5 2-2q2-2 18-32l16-30h2.5q2.5 0 22.5 8t41 14.5 57.5 13.5 54 6.5 32-7 30.5-21 32.5-35T910 866t20.5-38 20-45 11.5-37 31.5-51 37.5-50 13.5-28 2.5-25-6-50.5l-6-35.5 2-4.5q2-4.5 13-16.5t14-18.5 3.5-16-2-19.5-1.5-17l1-7 55.5-37q55.5-37 84.5-50.5t44-16.5 38.5-3 53.5 2 72.5 7.5l42.5 5.5 1.5-4q1.5-4 3.5-19.5l2-15.5-33.5-5.5q-33.5-5.5-77-10t-77-5M826 698.5l29-6.5 20.5 14q20.5 14 25 19.5l4.5 5.5-1 10q-1 10-6.5 26T886 795.5t-15.5 28-22 31T827 879t-18 16.5l-9 7.5-17.5-1.5q-17.5-1.5-19-2.5l-1.5-1-.5-2.5q-.5-2.5 15-93.5l15.5-91 2.5-3 2.5-3zM777.5 642l10.5-4 2.5.5 2.5.5 9.5 8.5 9.5 8.5v3l-9 4.5q-9 4.5-20.5 8T769 677l-2 2-16 105.5L735 890l-1.5 1.5-1.5 1.5-3.5-.5q-3.5-.5-43-14.5L646 864l-1.5-2.5-1.5-2.5 7-14q7-14 57-102.5t55-92.5 15.5-8"/></svg>
